<mxfile host="app.diagrams.net" modified="2024-04-02T14:45:23.311Z" agent="Mozilla/5.0 (X11; Linux x86_64) AppleWebKit/537.36 (KHTML, like Gecko) Chrome/116.0.0.0 Safari/537.36" etag="PGt4NBubufiVq70xj7Sa" version="24.2.1" type="google">
  <diagram name="PÃ¡gina-1" id="x8EQFBZq3Qsr6G7tImya">
    <mxGraphModel grid="1" page="1" gridSize="10" guides="1" tooltips="1" connect="1" arrows="1" fold="1" pageScale="1" pageWidth="827" pageHeight="1169" math="0" shadow="0">
      <root>
        <mxCell id="0" />
        <mxCell id="1" parent="0" />
        <mxCell id="7oUSbart6e3NiO8kGL1M-1" value="&lt;p style=&quot;margin:0px;margin-top:4px;text-align:center;&quot;&gt;&lt;b&gt;Bomba&lt;/b&gt;&lt;/p&gt;&lt;hr size=&quot;1&quot; style=&quot;border-style:solid;&quot;&gt;&lt;p style=&quot;margin:0px;margin-left:4px;&quot;&gt;- ArrayList&amp;lt;Operacao&amp;gt;: operacoes&lt;/p&gt;&lt;hr size=&quot;1&quot; style=&quot;border-style:solid;&quot;&gt;&lt;p style=&quot;margin:0px;margin-left:4px;&quot;&gt;+ addOperacao(operacao: Operacao): void&lt;/p&gt;" style="verticalAlign=top;align=left;overflow=fill;html=1;whiteSpace=wrap;" vertex="1" parent="1">
          <mxGeometry x="1030" y="300" width="250" height="80" as="geometry" />
        </mxCell>
        <mxCell id="7oUSbart6e3NiO8kGL1M-2" value="&lt;p style=&quot;margin:0px;margin-top:4px;text-align:center;&quot;&gt;&lt;b&gt;Operacao&lt;/b&gt;&lt;/p&gt;&lt;hr size=&quot;1&quot; style=&quot;border-style:solid;&quot;&gt;&lt;p style=&quot;margin:0px;margin-left:4px;&quot;&gt;- data: String&lt;/p&gt;&lt;p style=&quot;margin:0px;margin-left:4px;&quot;&gt;- valor: double&lt;/p&gt;&lt;p style=&quot;margin:0px;margin-left:4px;&quot;&gt;- qtdCombustivel: int&lt;/p&gt;&lt;p style=&quot;margin:0px;margin-left:4px;&quot;&gt;- veiculo: Veiculo&lt;/p&gt;&lt;p style=&quot;margin:0px;margin-left:4px;&quot;&gt;- tanque: Tanque&lt;/p&gt;&lt;hr size=&quot;1&quot; style=&quot;border-style:solid;&quot;&gt;&lt;p style=&quot;margin:0px;margin-left:4px;&quot;&gt;&lt;br&gt;&lt;/p&gt;" style="verticalAlign=top;align=left;overflow=fill;html=1;whiteSpace=wrap;" vertex="1" parent="1">
          <mxGeometry x="690" y="160" width="250" height="130" as="geometry" />
        </mxCell>
        <mxCell id="7oUSbart6e3NiO8kGL1M-3" value="&lt;p style=&quot;margin:0px;margin-top:4px;text-align:center;&quot;&gt;Pessoa&lt;/p&gt;&lt;hr size=&quot;1&quot; style=&quot;border-style:solid;&quot;&gt;&lt;p style=&quot;margin:0px;margin-left:4px;&quot;&gt;- nome: String&lt;/p&gt;&lt;p style=&quot;margin:0px;margin-left:4px;&quot;&gt;- cpf: String&lt;/p&gt;&lt;hr size=&quot;1&quot; style=&quot;border-style:solid;&quot;&gt;&lt;p style=&quot;margin:0px;margin-left:4px;&quot;&gt;&lt;br&gt;&lt;/p&gt;" style="verticalAlign=top;align=left;overflow=fill;html=1;whiteSpace=wrap;" vertex="1" parent="1">
          <mxGeometry x="40" y="435" width="250" height="90" as="geometry" />
        </mxCell>
        <mxCell id="7oUSbart6e3NiO8kGL1M-4" style="edgeStyle=orthogonalEdgeStyle;rounded=0;orthogonalLoop=1;jettySize=auto;html=1;exitX=0.5;exitY=1;exitDx=0;exitDy=0;" edge="1" parent="1" source="7oUSbart6e3NiO8kGL1M-2" target="7oUSbart6e3NiO8kGL1M-2">
          <mxGeometry relative="1" as="geometry" />
        </mxCell>
        <mxCell id="7oUSbart6e3NiO8kGL1M-5" value="&lt;p style=&quot;margin:0px;margin-top:4px;text-align:center;&quot;&gt;&lt;b&gt;Posto&lt;/b&gt;&lt;/p&gt;&lt;hr size=&quot;1&quot; style=&quot;border-style:solid;&quot;&gt;&lt;p style=&quot;margin:0px;margin-left:4px;&quot;&gt;- ArrayList&amp;lt;Bomba&amp;gt;: bombas&lt;/p&gt;&lt;p style=&quot;margin:0px;margin-left:4px;&quot;&gt;-tanquePrincipal: Tanque&lt;/p&gt;&lt;hr size=&quot;1&quot; style=&quot;border-style:solid;&quot;&gt;&lt;p style=&quot;margin:0px;margin-left:4px;&quot;&gt;+ addBombas(bombas: Bomba): void&lt;/p&gt;" style="verticalAlign=top;align=left;overflow=fill;html=1;whiteSpace=wrap;" vertex="1" parent="1">
          <mxGeometry x="1020" y="495" width="250" height="90" as="geometry" />
        </mxCell>
        <mxCell id="7oUSbart6e3NiO8kGL1M-6" value="&lt;p style=&quot;margin:0px;margin-top:4px;text-align:center;&quot;&gt;&lt;b&gt;Tanque&lt;/b&gt;&lt;/p&gt;&lt;hr size=&quot;1&quot; style=&quot;border-style:solid;&quot;&gt;&lt;p style=&quot;margin:0px;margin-left:4px;&quot;&gt;- capacidade: int&lt;/p&gt;&lt;p style=&quot;margin:0px;margin-left:4px;&quot;&gt;- estadoTanque: int&lt;/p&gt;&lt;p style=&quot;margin:0px;margin-left:4px;&quot;&gt;- reserva: int&lt;/p&gt;&lt;p style=&quot;margin:0px;margin-left:4px;&quot;&gt;- qtdCombustivel: int&lt;/p&gt;&lt;hr size=&quot;1&quot; style=&quot;border-style:solid;&quot;&gt;&lt;p style=&quot;margin:0px;margin-left:4px;&quot;&gt;+ abastecer(qtdCombustivel: int): void&lt;/p&gt;&lt;p style=&quot;margin:0px;margin-left:4px;&quot;&gt;+ completaTanque(): void&lt;/p&gt;" style="verticalAlign=top;align=left;overflow=fill;html=1;whiteSpace=wrap;" vertex="1" parent="1">
          <mxGeometry x="690" y="670" width="250" height="140" as="geometry" />
        </mxCell>
        <mxCell id="7oUSbart6e3NiO8kGL1M-7" value="&lt;p style=&quot;margin:0px;margin-top:4px;text-align:center;&quot;&gt;&lt;b&gt;Veiculo&lt;/b&gt;&lt;/p&gt;&lt;hr size=&quot;1&quot; style=&quot;border-style:solid;&quot;&gt;&lt;p style=&quot;margin:0px;margin-left:4px;&quot;&gt;- potencia: int&lt;/p&gt;&lt;p style=&quot;margin:0px;margin-left:4px;&quot;&gt;- placa: String&lt;/p&gt;&lt;p style=&quot;margin:0px;margin-left:4px;&quot;&gt;- proprietario: Pessoa&lt;/p&gt;&lt;p style=&quot;margin:0px;margin-left:4px;&quot;&gt;- tanqueVeiculo: Tanque&lt;/p&gt;&lt;hr size=&quot;1&quot; style=&quot;border-style:solid;&quot;&gt;&lt;p style=&quot;margin:0px;margin-left:4px;&quot;&gt;+ acelerar(): void&lt;/p&gt;" style="verticalAlign=top;align=left;overflow=fill;html=1;whiteSpace=wrap;" vertex="1" parent="1">
          <mxGeometry x="414" y="410" width="250" height="140" as="geometry" />
        </mxCell>
        <mxCell id="7oUSbart6e3NiO8kGL1M-8" value="" style="endArrow=diamondThin;endFill=1;endSize=24;html=1;rounded=0;exitX=0.008;exitY=0.443;exitDx=0;exitDy=0;exitPerimeter=0;" edge="1" parent="1" source="7oUSbart6e3NiO8kGL1M-6" target="7oUSbart6e3NiO8kGL1M-7">
          <mxGeometry width="160" relative="1" as="geometry">
            <mxPoint x="810" y="634.9000000000001" as="sourcePoint" />
            <mxPoint x="684" y="439.99999999999994" as="targetPoint" />
            <Array as="points">
              <mxPoint x="540" y="730" />
            </Array>
          </mxGeometry>
        </mxCell>
        <mxCell id="7oUSbart6e3NiO8kGL1M-9" value="" style="endArrow=diamondThin;endFill=1;endSize=24;html=1;rounded=0;exitX=1.004;exitY=0.579;exitDx=0;exitDy=0;exitPerimeter=0;entryX=0.548;entryY=1;entryDx=0;entryDy=0;entryPerimeter=0;" edge="1" parent="1" source="7oUSbart6e3NiO8kGL1M-6" target="7oUSbart6e3NiO8kGL1M-5">
          <mxGeometry width="160" relative="1" as="geometry">
            <mxPoint x="1040" y="649.5" as="sourcePoint" />
            <mxPoint x="1200" y="649.5" as="targetPoint" />
            <Array as="points">
              <mxPoint x="1157" y="750" />
            </Array>
          </mxGeometry>
        </mxCell>
        <mxCell id="7oUSbart6e3NiO8kGL1M-10" value="" style="endArrow=diamondThin;endFill=1;endSize=24;html=1;rounded=0;exitX=0.5;exitY=1;exitDx=0;exitDy=0;entryX=0.532;entryY=-0.056;entryDx=0;entryDy=0;entryPerimeter=0;" edge="1" parent="1" source="7oUSbart6e3NiO8kGL1M-1" target="7oUSbart6e3NiO8kGL1M-5">
          <mxGeometry width="160" relative="1" as="geometry">
            <mxPoint x="1100" y="450" as="sourcePoint" />
            <mxPoint x="1260" y="450" as="targetPoint" />
          </mxGeometry>
        </mxCell>
        <mxCell id="7oUSbart6e3NiO8kGL1M-11" value="" style="endArrow=diamondThin;endFill=0;endSize=24;html=1;rounded=0;exitX=-0.004;exitY=0.55;exitDx=0;exitDy=0;exitPerimeter=0;entryX=1.004;entryY=0.6;entryDx=0;entryDy=0;entryPerimeter=0;" edge="1" parent="1" source="7oUSbart6e3NiO8kGL1M-7" target="7oUSbart6e3NiO8kGL1M-3">
          <mxGeometry width="160" relative="1" as="geometry">
            <mxPoint x="290" y="350" as="sourcePoint" />
            <mxPoint x="450" y="350" as="targetPoint" />
          </mxGeometry>
        </mxCell>
        <mxCell id="7oUSbart6e3NiO8kGL1M-12" value="" style="endArrow=diamondThin;endFill=1;endSize=24;html=1;rounded=0;exitX=0.536;exitY=0;exitDx=0;exitDy=0;exitPerimeter=0;entryX=1.008;entryY=0.446;entryDx=0;entryDy=0;entryPerimeter=0;" edge="1" parent="1" source="7oUSbart6e3NiO8kGL1M-1" target="7oUSbart6e3NiO8kGL1M-2">
          <mxGeometry width="160" relative="1" as="geometry">
            <mxPoint x="1120" y="224.5" as="sourcePoint" />
            <mxPoint x="1280" y="224.5" as="targetPoint" />
            <Array as="points">
              <mxPoint x="1164" y="218" />
            </Array>
          </mxGeometry>
        </mxCell>
        <mxCell id="7oUSbart6e3NiO8kGL1M-13" value="1" style="text;html=1;align=center;verticalAlign=middle;resizable=0;points=[];autosize=1;strokeColor=none;fillColor=none;" vertex="1" parent="1">
          <mxGeometry x="1175" y="268" width="30" height="30" as="geometry" />
        </mxCell>
        <mxCell id="7oUSbart6e3NiO8kGL1M-14" value="*" style="text;html=1;align=center;verticalAlign=middle;resizable=0;points=[];autosize=1;strokeColor=none;fillColor=none;" vertex="1" parent="1">
          <mxGeometry x="940" y="190" width="30" height="30" as="geometry" />
        </mxCell>
        <mxCell id="7oUSbart6e3NiO8kGL1M-15" value="1" style="text;html=1;align=center;verticalAlign=middle;resizable=0;points=[];autosize=1;strokeColor=none;fillColor=none;" vertex="1" parent="1">
          <mxGeometry x="545" y="548" width="30" height="30" as="geometry" />
        </mxCell>
        <mxCell id="7oUSbart6e3NiO8kGL1M-16" value="1" style="text;html=1;align=center;verticalAlign=middle;resizable=0;points=[];autosize=1;strokeColor=none;fillColor=none;" vertex="1" parent="1">
          <mxGeometry x="664" y="700" width="30" height="30" as="geometry" />
        </mxCell>
        <mxCell id="7oUSbart6e3NiO8kGL1M-17" value="1" style="text;html=1;align=center;verticalAlign=middle;resizable=0;points=[];autosize=1;strokeColor=none;fillColor=none;" vertex="1" parent="1">
          <mxGeometry x="290" y="458" width="30" height="30" as="geometry" />
        </mxCell>
        <mxCell id="7oUSbart6e3NiO8kGL1M-18" value="*" style="text;html=1;align=center;verticalAlign=middle;resizable=0;points=[];autosize=1;strokeColor=none;fillColor=none;" vertex="1" parent="1">
          <mxGeometry x="385" y="458" width="30" height="30" as="geometry" />
        </mxCell>
        <mxCell id="7oUSbart6e3NiO8kGL1M-19" value="1" style="text;html=1;align=center;verticalAlign=middle;resizable=0;points=[];autosize=1;strokeColor=none;fillColor=none;" vertex="1" parent="1">
          <mxGeometry x="1125" y="588" width="30" height="30" as="geometry" />
        </mxCell>
        <mxCell id="7oUSbart6e3NiO8kGL1M-20" value="*" style="text;html=1;align=center;verticalAlign=middle;resizable=0;points=[];autosize=1;strokeColor=none;fillColor=none;" vertex="1" parent="1">
          <mxGeometry x="945" y="728" width="30" height="30" as="geometry" />
        </mxCell>
        <mxCell id="7oUSbart6e3NiO8kGL1M-21" value="1" style="text;html=1;align=center;verticalAlign=middle;resizable=0;points=[];autosize=1;strokeColor=none;fillColor=none;" vertex="1" parent="1">
          <mxGeometry x="1165" y="468" width="30" height="30" as="geometry" />
        </mxCell>
        <mxCell id="7oUSbart6e3NiO8kGL1M-22" value="*" style="text;html=1;align=center;verticalAlign=middle;resizable=0;points=[];autosize=1;strokeColor=none;fillColor=none;" vertex="1" parent="1">
          <mxGeometry x="1155" y="380" width="30" height="30" as="geometry" />
        </mxCell>
      </root>
    </mxGraphModel>
  </diagram>
</mxfile>
